<?xml version="1.0" standalone="no"?><!DOCTYPE svg PUBLIC "-//W3C//DTD SVG 1.1//EN" "http://www.w3.org/Graphics/SVG/1.1/DTD/svg11.dtd"><svg t="1692688899486" class="icon" viewBox="0 0 1024 1024" version="1.1" xmlns="http://www.w3.org/2000/svg" p-id="6437" xmlns:xlink="http://www.w3.org/1999/xlink" width="200" height="200"><path d="M829.44 71.68H194.56A122.88 122.88 0 0 0 71.68 194.56v430.08a122.88 122.88 0 0 0 122.88 122.88h634.88a122.88 122.88 0 0 0 122.88-122.88V194.56A122.88 122.88 0 0 0 829.44 71.68z m81.92 552.96a81.92 81.92 0 0 1-81.92 81.92H194.56a81.92 81.92 0 0 1-81.92-81.92V194.56a81.92 81.92 0 0 1 81.92-81.92h634.88a81.92 81.92 0 0 1 81.92 81.92z" p-id="6438"></path><path d="M707.1744 284.4672L468.0704 524.6976 358.4 414.9248a20.48 20.48 0 1 0-28.9792 28.8768L453.632 568.1152a20.48 20.48 0 0 0 28.9792 0L736.1536 313.344a20.48 20.48 0 1 0-28.9792-28.8768zM614.4 849.92a20.48 20.48 0 0 0 0-40.96H409.6a20.48 20.48 0 0 0 0 40.96zM757.76 911.36H266.24a20.48 20.48 0 0 0 0 40.96h491.52a20.48 20.48 0 0 0 0-40.96z" p-id="6439"></path></svg>